<svg width="315" height="2000" viewBox="0 0 315 2000" fill="none" xmlns="http://www.w3.org/2000/svg">
<path d="M25.4325 58.6748C38.4983 61.2771 51.564 63.8794 64.6298 66.4818C60.6367 84.4901 57.1495 101.53 53.8168 119.624C-16.208 441.9 98.6631 765.632 122.975 1092.31C124.468 1110.79 125.682 1128.51 126.747 1147.05C126.747 1147.05 126.747 1147.05 126.747 1147.05C125.017 1128.56 123.14 1110.91 120.985 1092.51C85.2882 768.103 -42.9104 448.829 16.3269 113.579C19.0818 94.8957 21.9969 77.2852 25.4325 58.6748Z" fill="#333333"/>
<path d="M69.6156 29.5198C81.5958 35.0857 93.576 40.6517 105.556 46.2176C100.793 55.8283 95.7811 68.4084 91.5195 80.1228C48.9161 200.94 38.5753 333.711 47.4458 462.902C54.9123 565.338 62.9807 667.381 78.3097 768.59C80.384 781.455 82.4787 794.187 85.382 806.682C81.8317 794.362 79.0771 781.747 76.3442 768.998C55.7908 668.646 42.4482 567.037 29.7154 465.017C14.1126 334.521 16.9957 199.2 55.531 68.8079C59.6097 55.6973 63.6926 43.2708 69.6156 29.5198Z" fill="#BB0302"/>
<path d="M182.071 76.0732C214.146 66.6933 246.221 57.3135 278.296 47.9336C286.217 80.99 289.607 108.159 293.025 137.244C317.925 387.498 287.925 632.945 241.973 873.774C193.41 1124.81 179.375 1387.3 236.869 1636.01C243.202 1662.07 250.886 1689.64 259.721 1713.08C248.22 1718.09 236.718 1723.1 225.217 1728.11C213.737 1700.85 205.341 1673.89 197.575 1646.7C128.477 1391.52 133.113 1122.22 173.327 862.322C209.818 624.996 229.065 382.151 196.973 150.71C193.135 125.2 187.839 96.4372 182.071 76.0732Z" fill="#BB0302"/>
<path d="M99.6163 70.005C117.504 50.1977 135.391 30.3904 153.279 10.5831C188.093 49.8877 196.042 80.8779 207.985 115.789C269.884 354.862 226.934 588.172 183.537 814.344C123.952 1169.87 182.848 1542.75 242.353 1902.14C248.154 1934.38 254.511 1968.2 260.902 1999.61C260.902 1999.61 260.902 1999.61 260.902 1999.61C253.209 1968.5 245.544 1934.93 238.431 1902.94C164.742 1544.71 89.3738 1179.19 136.061 805.527C170.799 582.618 199.295 345.407 135.735 139.486C130.794 125.414 124.983 111.388 118.461 98.8192C115.074 92.2872 111.729 86.529 108.032 80.9763C107.584 80.3069 107.149 79.6696 106.727 79.0636C106.272 78.4081 105.762 77.6824 105.308 77.0567C104.39 75.7902 103.557 74.6917 102.602 73.4857C102.147 72.9148 101.763 72.4499 101.342 71.9508C100.863 71.3773 100.443 70.8992 100.089 70.5113C100 70.4143 99.9158 70.323 99.8355 70.2372C99.7432 70.1375 99.6269 70.0111 99.535 69.9142C99.3452 69.7132 99.1887 69.555 99.0671 69.4377C99.0045 69.3771 98.9605 69.3373 98.9057 69.2864C98.838 69.2218 98.7951 69.1849 98.7778 69.1747C98.7606 69.1644 98.7691 69.1809 98.8043 69.2231C98.7669 69.1936 99.0944 69.528 99.6163 70.005Z" fill="#333333"/>
<path d="M307.835 1735.73C288.319 1740.11 268.804 1744.48 249.288 1748.86C243.376 1719.44 238.276 1690.2 233.526 1661.27C197.015 1419.79 168.39 1171.54 219.939 927.614C283.951 652.505 327.677 366.72 285.228 85.3158C280.13 56.0839 274.408 27.8444 264.999 2.6226e-05C275.356 27.5232 282.08 55.6236 288.176 84.7623C340.442 365.58 306.378 655.099 251.286 934.537C209.602 1170.02 245.451 1415.23 289.613 1651.11C295.224 1679.22 301.34 1708.34 307.835 1735.73Z" fill="black"/>
<path d="M113.388 14.2107C122.429 18.4109 131.469 22.6111 140.509 26.8113C135.237 37.7236 130.05 49.8513 125.279 61.5389C77.1547 182.017 48.7708 312.435 54.3354 442.721C59.2293 545.009 64.5244 646.819 74.9368 748.496C76.3506 761.446 77.788 774.349 79.8039 787.045C77.295 774.437 75.3599 761.59 73.4489 748.697C59.1155 647.429 49.8816 545.808 41.052 443.699C30.2989 311.164 53.9593 177.294 98.6914 51.4954C103.209 39.106 107.851 26.9026 113.388 14.2107Z" fill="black"/>
</svg>
