<svg width="315" height="2000" viewBox="0 0 315 2000" fill="none" xmlns="http://www.w3.org/2000/svg">
<path d="M289.567 58.6748C276.502 61.2771 263.436 63.8794 250.37 66.4818C254.363 84.4901 257.85 101.53 261.183 119.624C331.208 441.9 216.337 765.632 192.025 1092.31C190.532 1110.79 189.318 1128.51 188.253 1147.05C188.253 1147.05 188.253 1147.05 188.253 1147.05C189.983 1128.56 191.86 1110.91 194.015 1092.51C229.712 768.103 357.91 448.829 298.673 113.579C295.918 94.8957 293.003 77.2852 289.567 58.6748Z" fill="black"/>
<path d="M245.385 29.5198C233.404 35.0857 221.424 40.6517 209.444 46.2176C214.207 55.8283 219.219 68.4084 223.481 80.1228C266.084 200.94 276.425 333.711 267.554 462.902C260.088 565.338 252.019 667.381 236.69 768.59C234.616 781.455 232.521 794.187 229.618 806.682C233.168 794.362 235.923 781.747 238.656 768.998C259.209 668.646 272.552 567.037 285.285 465.017C300.887 334.521 298.004 199.2 259.469 68.8079C255.39 55.6973 251.308 43.2708 245.385 29.5198Z" fill="#BB0302"/>
<path d="M132.929 76.0732C100.854 66.6933 68.7792 57.3135 36.7045 47.9336C28.7827 80.99 25.3929 108.159 21.9748 137.244C-2.92444 387.498 27.0747 632.945 73.0273 873.774C121.59 1124.81 135.625 1387.3 78.1311 1636.01C71.7979 1662.07 64.1139 1689.64 55.2794 1713.08C66.7805 1718.09 78.2817 1723.1 89.7828 1728.11C101.263 1700.85 109.659 1673.89 117.426 1646.7C186.523 1391.52 181.887 1122.22 141.673 862.322C105.182 624.996 85.935 382.151 118.027 150.71C121.865 125.2 127.161 96.4372 132.929 76.0732Z" fill="#737373"/>
<path d="M215.384 70.005C197.496 50.1977 179.609 30.3904 161.721 10.5831C126.907 49.8877 118.958 80.8779 107.015 115.789C45.1164 354.862 88.0659 588.172 131.463 814.344C191.048 1169.87 132.152 1542.75 72.6472 1902.14C66.8462 1934.38 60.4892 1968.2 54.0976 1999.61C54.0976 1999.61 54.0976 1999.61 54.0976 1999.61C61.7905 1968.5 69.4565 1934.93 76.569 1902.94C150.258 1544.71 225.626 1179.19 178.939 805.527C144.201 582.618 115.705 345.407 179.265 139.486C184.206 125.414 190.017 111.388 196.539 98.8192C199.926 92.2872 203.271 86.529 206.968 80.9763C207.416 80.3069 207.851 79.6696 208.273 79.0636C208.728 78.4081 209.238 77.6824 209.692 77.0567C210.61 75.7902 211.443 74.6917 212.398 73.4857C212.853 72.9148 213.237 72.4499 213.658 71.9508C214.137 71.3773 214.557 70.8992 214.911 70.5113C215 70.4143 215.084 70.323 215.165 70.2372C215.257 70.1375 215.373 70.0111 215.465 69.9142C215.655 69.7132 215.811 69.555 215.933 69.4377C215.995 69.3771 216.039 69.3373 216.094 69.2864C216.162 69.2218 216.205 69.1849 216.222 69.1747C216.239 69.1644 216.231 69.1809 216.196 69.2231C216.233 69.1936 215.906 69.528 215.384 70.005Z" fill="black"/>
<path d="M7.16498 1735.73C26.6808 1740.11 46.1965 1744.48 65.7123 1748.86C71.6244 1719.44 76.7243 1690.2 81.4744 1661.27C117.986 1419.79 146.61 1171.54 95.0607 927.614C31.0488 652.505 -12.6768 366.72 29.7724 85.3158C34.8698 56.0839 40.5924 27.8444 50.0013 2.6226e-05C39.644 27.5232 32.9202 55.6236 26.8239 84.7623C-25.4418 365.58 8.62174 655.099 63.7139 934.537C105.398 1170.02 69.5492 1415.23 25.3867 1651.11C19.7765 1679.22 13.6599 1708.34 7.16498 1735.73Z" fill="#BB0302"/>
<path d="M201.612 14.2107C192.571 18.4109 183.531 22.6111 174.491 26.8113C179.763 37.7236 184.95 49.8513 189.721 61.5389C237.845 182.017 266.229 312.435 260.665 442.721C255.771 545.009 250.476 646.819 240.063 748.496C238.649 761.446 237.212 774.349 235.196 787.045C237.705 774.437 239.64 761.59 241.551 748.697C255.885 647.429 265.118 545.808 273.948 443.699C284.701 311.164 261.041 177.294 216.309 51.4954C211.791 39.106 207.149 26.9026 201.612 14.2107Z" fill="#737373"/>
</svg>
