<svg width="385" height="1926" viewBox="0 0 385 1926" fill="none" xmlns="http://www.w3.org/2000/svg">
<path d="M239.914 37.9784C235.383 43.9552 230.853 49.932 226.322 55.9088C243.258 74.591 255.616 104.406 262.883 131.77C291.211 246.504 272.101 369.273 248.482 487.298C219.529 624.401 173.473 757.281 120.22 889.318C5.00647 1162.51 3.40461 1494.14 160.29 1749.49C176.879 1776.57 194.372 1802.39 215.493 1826.81C221.166 1821.9 226.839 1817 232.512 1812.09C214.729 1789.12 198.496 1762.55 183.985 1735.87C45.5919 1481.41 58.4278 1170.83 172.384 910.948C228.689 777.611 277.045 642.282 307.216 499.559C331.695 376.848 344.741 243.689 296.93 120.076C284.096 90.2131 268.627 60.64 239.914 37.9784Z" fill="#333333"/>
<path d="M302.118 0.589488C286.421 22.1467 270.724 43.704 255.027 65.2612C254.565 64.9187 254.298 64.7026 254.207 64.6233C254.17 64.5867 254.171 64.5808 254.183 64.5836C254.209 64.592 254.314 64.6653 254.491 64.8067C254.728 64.9873 255.05 65.2499 255.481 65.6306C256.317 66.3722 257.054 67.055 258.092 68.1061C258.906 68.9205 259.828 69.8899 260.842 71.0248C261.766 72.0557 262.621 73.0425 263.597 74.2275C267.318 78.7428 270.909 83.8137 274.358 89.3786C281.145 100.319 287.042 112.654 291.966 125.441C364.065 364.161 263.032 640.994 168.327 885.316C50.2888 1165.4 46.3018 1498.53 192.655 1764.03C207.971 1791.83 224.568 1819 243.761 1843.76C243.761 1843.76 243.761 1843.76 243.761 1843.76C225.649 1818.22 210.267 1790.47 196.203 1762.18C62.049 1491.61 81.4372 1168.01 206.803 901.921C311.139 655.221 434.743 393.259 363.526 99.8454C350.962 66.0448 340.064 34.6758 302.118 0.589488Z" fill="#BB0302"/>
<path d="M220.998 37.8055C234.289 67.5282 240.529 100.129 244.811 132.48C269.14 392.458 173.186 641.979 69.4094 877.207C54.4294 910.209 42.0154 943.945 32.0314 978.42C-53.291 1279.43 46.8248 1592.79 199.744 1843.58C217.112 1871.58 235.613 1899.66 254.998 1925.31C238.964 1897.47 223.846 1867.64 209.752 1838.12C85.8077 1573.06 10.7214 1271.35 89.6637 995.109C98.8937 963.241 110.142 932.055 123.587 901.403C226.574 660.791 310.162 393.129 256.025 130.43C248.096 98.0566 237.905 65.7724 220.998 37.8055Z" fill="black"/>
</svg>
